<mxfile host="app.diagrams.net" agent="Mozilla/5.0 (Windows NT 10.0; Win64; x64) AppleWebKit/537.36 (KHTML, like Gecko) Chrome/127.0.0.0 Safari/537.36 Edg/127.0.0.0" version="24.7.6" pages="3">
  <diagram name="exercicio1" id="AlINo6T7uMTU3rrEU0ud">
    <mxGraphModel dx="1066" dy="603" grid="1" gridSize="10" guides="1" tooltips="1" connect="1" arrows="1" fold="1" page="1" pageScale="1" pageWidth="827" pageHeight="1169" math="0" shadow="0">
      <root>
        <mxCell id="0" />
        <mxCell id="1" parent="0" />
        <mxCell id="lttd8ILJxdH7Xqu3NmF1-6" value="" style="edgeStyle=orthogonalEdgeStyle;rounded=0;orthogonalLoop=1;jettySize=auto;html=1;labelBackgroundColor=none;strokeColor=#E07A5F;fontColor=default;" edge="1" parent="1" source="lttd8ILJxdH7Xqu3NmF1-1" target="lttd8ILJxdH7Xqu3NmF1-5">
          <mxGeometry relative="1" as="geometry" />
        </mxCell>
        <mxCell id="lttd8ILJxdH7Xqu3NmF1-1" value="INICIO" style="strokeWidth=2;html=1;shape=mxgraph.flowchart.terminator;whiteSpace=wrap;labelBackgroundColor=none;fillColor=#F2CC8F;strokeColor=#E07A5F;fontColor=#393C56;" vertex="1" parent="1">
          <mxGeometry x="346.5" y="140" width="96" height="40" as="geometry" />
        </mxCell>
        <mxCell id="lttd8ILJxdH7Xqu3NmF1-2" value="VALOR1= 10" style="shape=parallelogram;html=1;strokeWidth=2;perimeter=parallelogramPerimeter;whiteSpace=wrap;rounded=1;arcSize=12;size=0.23;labelBackgroundColor=none;fillColor=#F2CC8F;strokeColor=#E07A5F;fontColor=#393C56;" vertex="1" parent="1">
          <mxGeometry x="340" y="210" width="109" height="40" as="geometry" />
        </mxCell>
        <mxCell id="QpRFlptOUr80VbM9VVDt-2" value="" style="edgeStyle=orthogonalEdgeStyle;rounded=0;orthogonalLoop=1;jettySize=auto;html=1;labelBackgroundColor=none;strokeColor=#E07A5F;fontColor=default;" edge="1" parent="1" source="lttd8ILJxdH7Xqu3NmF1-5" target="QpRFlptOUr80VbM9VVDt-1">
          <mxGeometry relative="1" as="geometry" />
        </mxCell>
        <mxCell id="lttd8ILJxdH7Xqu3NmF1-5" value="VALOR2 = 24" style="shape=parallelogram;html=1;strokeWidth=2;perimeter=parallelogramPerimeter;whiteSpace=wrap;rounded=1;arcSize=12;size=0.23;labelBackgroundColor=none;fillColor=#F2CC8F;strokeColor=#E07A5F;fontColor=#393C56;" vertex="1" parent="1">
          <mxGeometry x="341.5" y="280" width="109" height="40" as="geometry" />
        </mxCell>
        <mxCell id="QpRFlptOUr80VbM9VVDt-4" value="" style="edgeStyle=orthogonalEdgeStyle;rounded=0;orthogonalLoop=1;jettySize=auto;html=1;labelBackgroundColor=none;strokeColor=#E07A5F;fontColor=default;" edge="1" parent="1" source="QpRFlptOUr80VbM9VVDt-1" target="QpRFlptOUr80VbM9VVDt-3">
          <mxGeometry relative="1" as="geometry" />
        </mxCell>
        <mxCell id="QpRFlptOUr80VbM9VVDt-9" value="" style="edgeStyle=orthogonalEdgeStyle;rounded=0;orthogonalLoop=1;jettySize=auto;html=1;labelBackgroundColor=none;strokeColor=#E07A5F;fontColor=default;" edge="1" parent="1" source="QpRFlptOUr80VbM9VVDt-1">
          <mxGeometry relative="1" as="geometry">
            <mxPoint x="396.5" y="460" as="targetPoint" />
          </mxGeometry>
        </mxCell>
        <mxCell id="QpRFlptOUr80VbM9VVDt-1" value="VALOR1 &amp;lt; VALOR2" style="rhombus;whiteSpace=wrap;html=1;labelBackgroundColor=none;fillColor=#F2CC8F;strokeColor=#E07A5F;fontColor=#393C56;" vertex="1" parent="1">
          <mxGeometry x="357.5" y="350" width="78" height="70" as="geometry" />
        </mxCell>
        <mxCell id="QpRFlptOUr80VbM9VVDt-3" value="&quot;O MAIOR VALOR É O VALOR1&quot;" style="strokeWidth=2;html=1;shape=mxgraph.flowchart.display;whiteSpace=wrap;labelBackgroundColor=none;fillColor=#F2CC8F;strokeColor=#E07A5F;fontColor=#393C56;" vertex="1" parent="1">
          <mxGeometry x="502.5" y="357.5" width="110" height="55" as="geometry" />
        </mxCell>
        <mxCell id="QpRFlptOUr80VbM9VVDt-10" value="FIM" style="strokeWidth=2;html=1;shape=mxgraph.flowchart.terminator;whiteSpace=wrap;labelBackgroundColor=none;fillColor=#F2CC8F;strokeColor=#E07A5F;fontColor=#393C56;" vertex="1" parent="1">
          <mxGeometry x="348.5" y="460" width="96" height="40" as="geometry" />
        </mxCell>
        <mxCell id="0adgETM39oOAosz5TmL8-1" style="edgeStyle=orthogonalEdgeStyle;rounded=0;orthogonalLoop=1;jettySize=auto;html=1;entryX=0.979;entryY=0.75;entryDx=0;entryDy=0;entryPerimeter=0;labelBackgroundColor=none;strokeColor=#E07A5F;fontColor=default;" edge="1" parent="1" source="QpRFlptOUr80VbM9VVDt-3" target="QpRFlptOUr80VbM9VVDt-10">
          <mxGeometry relative="1" as="geometry">
            <Array as="points">
              <mxPoint x="563" y="480" />
              <mxPoint x="443" y="480" />
            </Array>
          </mxGeometry>
        </mxCell>
      </root>
    </mxGraphModel>
  </diagram>
  <diagram name="exercicio2" id="F8ZxVAQd-Rr2j6Vtsyzd">
    <mxGraphModel dx="1066" dy="603" grid="1" gridSize="10" guides="1" tooltips="1" connect="1" arrows="1" fold="1" page="1" pageScale="1" pageWidth="827" pageHeight="1169" math="0" shadow="0">
      <root>
        <mxCell id="3j_za7VDnEUvMkb4NX9b-0" />
        <mxCell id="3j_za7VDnEUvMkb4NX9b-1" parent="3j_za7VDnEUvMkb4NX9b-0" />
        <mxCell id="3j_za7VDnEUvMkb4NX9b-2" value="" style="edgeStyle=orthogonalEdgeStyle;rounded=0;orthogonalLoop=1;jettySize=auto;html=1;labelBackgroundColor=none;strokeColor=#E07A5F;fontColor=default;" edge="1" parent="3j_za7VDnEUvMkb4NX9b-1" source="3j_za7VDnEUvMkb4NX9b-3">
          <mxGeometry relative="1" as="geometry">
            <mxPoint x="376" y="300" as="targetPoint" />
          </mxGeometry>
        </mxCell>
        <mxCell id="3j_za7VDnEUvMkb4NX9b-3" value="INICIO" style="strokeWidth=2;html=1;shape=mxgraph.flowchart.terminator;whiteSpace=wrap;labelBackgroundColor=none;fillColor=#F2CC8F;strokeColor=#E07A5F;fontColor=#393C56;" vertex="1" parent="3j_za7VDnEUvMkb4NX9b-1">
          <mxGeometry x="326.5" y="160" width="96" height="40" as="geometry" />
        </mxCell>
        <mxCell id="3j_za7VDnEUvMkb4NX9b-4" value="IDADE = 18" style="shape=parallelogram;html=1;strokeWidth=2;perimeter=parallelogramPerimeter;whiteSpace=wrap;rounded=1;arcSize=12;size=0.23;labelBackgroundColor=none;fillColor=#F2CC8F;strokeColor=#E07A5F;fontColor=#393C56;" vertex="1" parent="3j_za7VDnEUvMkb4NX9b-1">
          <mxGeometry x="320" y="230" width="109" height="40" as="geometry" />
        </mxCell>
        <mxCell id="dwBVXw5aOB10NbgvlNXI-3" style="edgeStyle=orthogonalEdgeStyle;rounded=0;orthogonalLoop=1;jettySize=auto;html=1;entryX=0.5;entryY=0;entryDx=0;entryDy=0;labelBackgroundColor=none;strokeColor=#E07A5F;fontColor=default;" edge="1" parent="3j_za7VDnEUvMkb4NX9b-1" source="dwBVXw5aOB10NbgvlNXI-0" target="dwBVXw5aOB10NbgvlNXI-2">
          <mxGeometry relative="1" as="geometry" />
        </mxCell>
        <mxCell id="sUt9cMUqhYn4JXz2kXhp-0" value="" style="edgeStyle=orthogonalEdgeStyle;rounded=0;orthogonalLoop=1;jettySize=auto;html=1;strokeColor=#E07A5F;fontColor=#393C56;fillColor=#F2CC8F;" edge="1" parent="3j_za7VDnEUvMkb4NX9b-1" source="dwBVXw5aOB10NbgvlNXI-0" target="dwBVXw5aOB10NbgvlNXI-1">
          <mxGeometry relative="1" as="geometry" />
        </mxCell>
        <mxCell id="dwBVXw5aOB10NbgvlNXI-0" value="IDADE &amp;gt;=18" style="strokeWidth=2;html=1;shape=mxgraph.flowchart.decision;whiteSpace=wrap;labelBackgroundColor=none;fillColor=#F2CC8F;strokeColor=#E07A5F;fontColor=#393C56;" vertex="1" parent="3j_za7VDnEUvMkb4NX9b-1">
          <mxGeometry x="333.5" y="300" width="86" height="70" as="geometry" />
        </mxCell>
        <mxCell id="dwBVXw5aOB10NbgvlNXI-4" style="edgeStyle=orthogonalEdgeStyle;rounded=0;orthogonalLoop=1;jettySize=auto;html=1;entryX=1;entryY=1;entryDx=0;entryDy=0;labelBackgroundColor=none;strokeColor=#E07A5F;fontColor=default;" edge="1" parent="3j_za7VDnEUvMkb4NX9b-1" source="dwBVXw5aOB10NbgvlNXI-1" target="dwBVXw5aOB10NbgvlNXI-2">
          <mxGeometry relative="1" as="geometry">
            <Array as="points">
              <mxPoint x="540" y="430" />
              <mxPoint x="382" y="430" />
              <mxPoint x="382" y="437" />
            </Array>
          </mxGeometry>
        </mxCell>
        <mxCell id="dwBVXw5aOB10NbgvlNXI-1" value="&quot;VOCÊ É OBRIGADO A VOTAR!&quot;" style="strokeWidth=2;html=1;shape=mxgraph.flowchart.display;whiteSpace=wrap;labelBackgroundColor=none;fillColor=#F2CC8F;strokeColor=#E07A5F;fontColor=#393C56;" vertex="1" parent="3j_za7VDnEUvMkb4NX9b-1">
          <mxGeometry x="490" y="307.5" width="100" height="55" as="geometry" />
        </mxCell>
        <mxCell id="dwBVXw5aOB10NbgvlNXI-6" value="" style="edgeStyle=orthogonalEdgeStyle;rounded=0;orthogonalLoop=1;jettySize=auto;html=1;labelBackgroundColor=none;strokeColor=#E07A5F;fontColor=default;" edge="1" parent="3j_za7VDnEUvMkb4NX9b-1" source="dwBVXw5aOB10NbgvlNXI-2" target="dwBVXw5aOB10NbgvlNXI-5">
          <mxGeometry relative="1" as="geometry" />
        </mxCell>
        <mxCell id="dwBVXw5aOB10NbgvlNXI-2" value="" style="ellipse;whiteSpace=wrap;html=1;aspect=fixed;labelBackgroundColor=none;fillColor=#F2CC8F;strokeColor=#E07A5F;fontColor=#393C56;" vertex="1" parent="3j_za7VDnEUvMkb4NX9b-1">
          <mxGeometry x="366.5" y="420" width="20" height="20" as="geometry" />
        </mxCell>
        <mxCell id="dwBVXw5aOB10NbgvlNXI-5" value="FIM" style="strokeWidth=2;html=1;shape=mxgraph.flowchart.terminator;whiteSpace=wrap;labelBackgroundColor=none;fillColor=#F2CC8F;strokeColor=#E07A5F;fontColor=#393C56;" vertex="1" parent="3j_za7VDnEUvMkb4NX9b-1">
          <mxGeometry x="328.5" y="500" width="96" height="40" as="geometry" />
        </mxCell>
      </root>
    </mxGraphModel>
  </diagram>
  <diagram name="exercicio3" id="Iam6k36SHDLlM6bd943K">
    <mxGraphModel dx="1066" dy="603" grid="1" gridSize="10" guides="1" tooltips="1" connect="1" arrows="1" fold="1" page="1" pageScale="1" pageWidth="827" pageHeight="1169" math="0" shadow="0">
      <root>
        <mxCell id="uzrHBRLqGWBDZJdbbS9f-0" />
        <mxCell id="uzrHBRLqGWBDZJdbbS9f-1" parent="uzrHBRLqGWBDZJdbbS9f-0" />
        <mxCell id="uzrHBRLqGWBDZJdbbS9f-2" value="" style="edgeStyle=orthogonalEdgeStyle;rounded=0;orthogonalLoop=1;jettySize=auto;html=1;labelBackgroundColor=none;strokeColor=#E07A5F;fontColor=default;" edge="1" parent="uzrHBRLqGWBDZJdbbS9f-1" source="uzrHBRLqGWBDZJdbbS9f-3" target="uzrHBRLqGWBDZJdbbS9f-5">
          <mxGeometry relative="1" as="geometry" />
        </mxCell>
        <mxCell id="uzrHBRLqGWBDZJdbbS9f-3" value="INICIO" style="strokeWidth=2;html=1;shape=mxgraph.flowchart.terminator;whiteSpace=wrap;labelBackgroundColor=none;fillColor=#F2CC8F;strokeColor=#E07A5F;fontColor=#393C56;" vertex="1" parent="uzrHBRLqGWBDZJdbbS9f-1">
          <mxGeometry x="364" y="30" width="96" height="40" as="geometry" />
        </mxCell>
        <mxCell id="uzrHBRLqGWBDZJdbbS9f-4" value="NOTA1= 3" style="shape=parallelogram;html=1;strokeWidth=2;perimeter=parallelogramPerimeter;whiteSpace=wrap;rounded=1;arcSize=12;size=0.23;labelBackgroundColor=none;fillColor=#F2CC8F;strokeColor=#E07A5F;fontColor=#393C56;" vertex="1" parent="uzrHBRLqGWBDZJdbbS9f-1">
          <mxGeometry x="357.5" y="100" width="109" height="40" as="geometry" />
        </mxCell>
        <mxCell id="2C7BocmHoHTcyBdL5sWY-1" value="" style="edgeStyle=orthogonalEdgeStyle;rounded=0;orthogonalLoop=1;jettySize=auto;html=1;labelBackgroundColor=none;strokeColor=#E07A5F;fontColor=default;" edge="1" parent="uzrHBRLqGWBDZJdbbS9f-1" source="uzrHBRLqGWBDZJdbbS9f-5" target="2C7BocmHoHTcyBdL5sWY-0">
          <mxGeometry relative="1" as="geometry" />
        </mxCell>
        <mxCell id="uzrHBRLqGWBDZJdbbS9f-5" value="NOTA2= 10" style="shape=parallelogram;html=1;strokeWidth=2;perimeter=parallelogramPerimeter;whiteSpace=wrap;rounded=1;arcSize=12;size=0.23;labelBackgroundColor=none;fillColor=#F2CC8F;strokeColor=#E07A5F;fontColor=#393C56;" vertex="1" parent="uzrHBRLqGWBDZJdbbS9f-1">
          <mxGeometry x="359" y="170" width="109" height="40" as="geometry" />
        </mxCell>
        <mxCell id="2C7BocmHoHTcyBdL5sWY-14" style="edgeStyle=orthogonalEdgeStyle;rounded=0;orthogonalLoop=1;jettySize=auto;html=1;entryX=0.5;entryY=0;entryDx=0;entryDy=0;labelBackgroundColor=none;strokeColor=#E07A5F;fontColor=default;" edge="1" parent="uzrHBRLqGWBDZJdbbS9f-1" source="2C7BocmHoHTcyBdL5sWY-0" target="2C7BocmHoHTcyBdL5sWY-2">
          <mxGeometry relative="1" as="geometry" />
        </mxCell>
        <mxCell id="2C7BocmHoHTcyBdL5sWY-0" value="MEDIA = (NOTA1 + NOTA2)/2" style="rounded=1;whiteSpace=wrap;html=1;labelBackgroundColor=none;fillColor=#F2CC8F;strokeColor=#E07A5F;fontColor=#393C56;" vertex="1" parent="uzrHBRLqGWBDZJdbbS9f-1">
          <mxGeometry x="352" y="240" width="118" height="40" as="geometry" />
        </mxCell>
        <mxCell id="2C7BocmHoHTcyBdL5sWY-2" value="NOTA &amp;gt;=7" style="rhombus;whiteSpace=wrap;html=1;labelBackgroundColor=none;fillColor=#F2CC8F;strokeColor=#E07A5F;fontColor=#393C56;" vertex="1" parent="uzrHBRLqGWBDZJdbbS9f-1">
          <mxGeometry x="371" y="320" width="80" height="80" as="geometry" />
        </mxCell>
        <mxCell id="2C7BocmHoHTcyBdL5sWY-9" style="edgeStyle=orthogonalEdgeStyle;rounded=0;orthogonalLoop=1;jettySize=auto;html=1;entryX=1;entryY=1;entryDx=0;entryDy=0;labelBackgroundColor=none;strokeColor=#E07A5F;fontColor=default;" edge="1" parent="uzrHBRLqGWBDZJdbbS9f-1" source="2C7BocmHoHTcyBdL5sWY-3" target="2C7BocmHoHTcyBdL5sWY-7">
          <mxGeometry relative="1" as="geometry">
            <Array as="points">
              <mxPoint x="610" y="487" />
            </Array>
          </mxGeometry>
        </mxCell>
        <mxCell id="2C7BocmHoHTcyBdL5sWY-3" value="&quot;APROVADO&quot;" style="strokeWidth=2;html=1;shape=mxgraph.flowchart.display;whiteSpace=wrap;labelBackgroundColor=none;fillColor=#F2CC8F;strokeColor=#E07A5F;fontColor=#393C56;" vertex="1" parent="uzrHBRLqGWBDZJdbbS9f-1">
          <mxGeometry x="560" y="330" width="100" height="60" as="geometry" />
        </mxCell>
        <mxCell id="2C7BocmHoHTcyBdL5sWY-4" style="edgeStyle=orthogonalEdgeStyle;rounded=0;orthogonalLoop=1;jettySize=auto;html=1;entryX=0;entryY=0.5;entryDx=0;entryDy=0;entryPerimeter=0;labelBackgroundColor=none;strokeColor=#E07A5F;fontColor=default;" edge="1" parent="uzrHBRLqGWBDZJdbbS9f-1" source="2C7BocmHoHTcyBdL5sWY-2" target="2C7BocmHoHTcyBdL5sWY-3">
          <mxGeometry relative="1" as="geometry" />
        </mxCell>
        <mxCell id="2C7BocmHoHTcyBdL5sWY-11" style="edgeStyle=orthogonalEdgeStyle;rounded=0;orthogonalLoop=1;jettySize=auto;html=1;entryX=0;entryY=1;entryDx=0;entryDy=0;labelBackgroundColor=none;strokeColor=#E07A5F;fontColor=default;" edge="1" parent="uzrHBRLqGWBDZJdbbS9f-1" source="2C7BocmHoHTcyBdL5sWY-5" target="2C7BocmHoHTcyBdL5sWY-7">
          <mxGeometry relative="1" as="geometry">
            <Array as="points">
              <mxPoint x="220" y="487" />
            </Array>
          </mxGeometry>
        </mxCell>
        <mxCell id="2C7BocmHoHTcyBdL5sWY-5" value="&quot;REPROVADO&quot;" style="strokeWidth=2;html=1;shape=mxgraph.flowchart.display;whiteSpace=wrap;labelBackgroundColor=none;fillColor=#F2CC8F;strokeColor=#E07A5F;fontColor=#393C56;" vertex="1" parent="uzrHBRLqGWBDZJdbbS9f-1">
          <mxGeometry x="190" y="330" width="100" height="60" as="geometry" />
        </mxCell>
        <mxCell id="2C7BocmHoHTcyBdL5sWY-6" style="edgeStyle=orthogonalEdgeStyle;rounded=0;orthogonalLoop=1;jettySize=auto;html=1;entryX=1;entryY=0.5;entryDx=0;entryDy=0;entryPerimeter=0;labelBackgroundColor=none;strokeColor=#E07A5F;fontColor=default;" edge="1" parent="uzrHBRLqGWBDZJdbbS9f-1" source="2C7BocmHoHTcyBdL5sWY-2" target="2C7BocmHoHTcyBdL5sWY-5">
          <mxGeometry relative="1" as="geometry" />
        </mxCell>
        <mxCell id="2C7BocmHoHTcyBdL5sWY-7" value="" style="ellipse;whiteSpace=wrap;html=1;aspect=fixed;labelBackgroundColor=none;fillColor=#F2CC8F;strokeColor=#E07A5F;fontColor=#393C56;" vertex="1" parent="uzrHBRLqGWBDZJdbbS9f-1">
          <mxGeometry x="401" y="470" width="20" height="20" as="geometry" />
        </mxCell>
        <mxCell id="2C7BocmHoHTcyBdL5sWY-12" value="FIM&amp;nbsp;" style="strokeWidth=2;html=1;shape=mxgraph.flowchart.terminator;whiteSpace=wrap;labelBackgroundColor=none;fillColor=#F2CC8F;strokeColor=#E07A5F;fontColor=#393C56;" vertex="1" parent="uzrHBRLqGWBDZJdbbS9f-1">
          <mxGeometry x="363" y="565" width="96" height="40" as="geometry" />
        </mxCell>
        <mxCell id="2C7BocmHoHTcyBdL5sWY-13" style="edgeStyle=orthogonalEdgeStyle;rounded=0;orthogonalLoop=1;jettySize=auto;html=1;entryX=0.5;entryY=0;entryDx=0;entryDy=0;entryPerimeter=0;labelBackgroundColor=none;strokeColor=#E07A5F;fontColor=default;" edge="1" parent="uzrHBRLqGWBDZJdbbS9f-1" source="2C7BocmHoHTcyBdL5sWY-7" target="2C7BocmHoHTcyBdL5sWY-12">
          <mxGeometry relative="1" as="geometry" />
        </mxCell>
      </root>
    </mxGraphModel>
  </diagram>
</mxfile>
